<svg id="Layer_1" data-name="Layer 1" xmlns="http://www.w3.org/2000/svg" xmlns:xlink="http://www.w3.org/1999/xlink" viewBox="0 0 1445.24 650.6"><defs><style>.cls-1,.cls-2,.cls-3,.cls-4,.cls-5{fill:none;}.cls-2,.cls-3,.cls-5{clip-path:url(#clip-path);}.cls-2{clip-rule:evenodd;}.cls-4{clip-path:url(#clip-path-8);}.cls-5{fill-rule:evenodd;}.cls-6{clip-path:url(#clip-path-23);}.cls-7{fill:#30374b;}.cls-8{clip-path:url(#clip-path-24);}.cls-9{clip-path:url(#clip-path-25);}.cls-10{clip-path:url(#clip-path-26);}.cls-11{clip-path:url(#clip-path-27);}.cls-12{clip-path:url(#clip-path-28);}.cls-13{clip-path:url(#clip-path-29);}.cls-14{clip-path:url(#clip-path-30);}.cls-15{clip-path:url(#clip-path-31);}.cls-16{clip-path:url(#clip-path-32);}.cls-17{clip-path:url(#clip-path-33);}.cls-18{clip-path:url(#clip-path-34);}</style><clipPath id="clip-path"><rect class="cls-1" x="-403.06" y="85.83" width="1419" height="624"/></clipPath><clipPath id="clip-path-8"><path class="cls-2" d="M-105.34,360.58h19.06a99.16,99.16,0,0,1-4.47,9.82A124.12,124.12,0,0,1-98,382.46a130.84,130.84,0,0,1-15.79,20.7c-13.65,15-22.86,21.38-30.06,26.22A177,177,0,0,1-164.1,441.1a204.28,204.28,0,0,1-22.06,8.64c-18,6.05-37.63,7.47-37.63,7.47s-11.46.78-17.9.53a182,182,0,0,1-33.4-4.08,168,168,0,0,1-52.67-21.86c-10.87-7.15-17-11.9-22.31-16.93-8.38-7.92-13.72-13-20.44-22.17-4.39-6-11.07-16-15-24a128.88,128.88,0,0,1-6-13.62,131.6,131.6,0,0,1-4.58-13.43c-1.34-5-2.72-11.12-3.44-15.2-.64-3.62-1.36-8.59-1.73-12s-.57-10.73-.57-10.73-1.24-16.91,3.91-39.24a153.28,153.28,0,0,1,13.77-36.82,144.3,144.3,0,0,1,10.64-17.32,125.49,125.49,0,0,1,8.43-11,163.88,163.88,0,0,1,26.63-25.16,169.55,169.55,0,0,1,31.68-18.67,198.46,198.46,0,0,1,36.57-11.7v17.64s-17.56,2.78-38.76,14.18a144,144,0,0,0-20.86,13.58A152.39,152.39,0,0,0-353.13,212a138.21,138.21,0,0,0-18.37,29.25,132.51,132.51,0,0,0-8.13,22,124.08,124.08,0,0,0-4,21.13c-.21,2.56-.56,5.48-.74,9.63s0,11,0,11a142.21,142.21,0,0,0,1.63,16A136.44,136.44,0,0,0-376,346.8,147.29,147.29,0,0,0-362.34,374a145.27,145.27,0,0,0,19.27,23.83,150.12,150.12,0,0,0,18.3,15.45,182.07,182.07,0,0,0,16.3,10c1.31.75,4.12,2.29,12.93,6.05a137.78,137.78,0,0,0,26.24,8.19A152.22,152.22,0,0,0-231,440.7a180.15,180.15,0,0,0,24.52-3.13,141.27,141.27,0,0,0,44.2-16.86c8.2-4.74,12.49-8,19.91-13.82A144.87,144.87,0,0,0-120.84,385a134.24,134.24,0,0,0,15.5-24.37Z"/></clipPath><clipPath id="clip-path-23" transform="translate(417 -72)"><path class="cls-2" d="M74.84,439.53a142.43,142.43,0,0,1-54.9-56.1q-19.8-36-19.8-81.6t19.8-81.6a142.43,142.43,0,0,1,54.9-56.1q35.1-20.1,78.3-20.1,43.8,0,78.6,20.1a143,143,0,0,1,54.6,56.1q19.8,36,19.8,81.6t-19.8,81.6a143,143,0,0,1-54.6,56.1q-34.8,20.1-78.6,20.1-43.2,0-78.3-20.1Zm146.4-15.6q30.3-17.7,47.7-49.5t17.4-72.6q0-40.8-17.4-72.3a126.8,126.8,0,0,0-47.7-49.2q-30.3-17.7-68.1-17.7T85,180.33a126.8,126.8,0,0,0-47.7,49.2q-17.4,31.5-17.4,72.3t17.4,72.6q17.4,31.8,47.7,49.5t68.1,17.7q37.8,0,68.1-17.7Zm444.45-277.5-142.2,311.4h-19.8l-142.2-311.4h21.6l130.8,289.2,130.8-289.2Zm347.55,158.4h-273q.6,39.6,18.6,70.8a127,127,0,0,0,49.5,48.6q31.5,17.4,70.5,17.4,31.8,0,58.8-11.7a109.69,109.69,0,0,0,44.4-34.5l12.6,13.2a140.6,140.6,0,0,1-51,37.8q-30,13.2-64.8,13.2-45.6,0-81.3-20.1a145.41,145.41,0,0,1-56.1-56.1q-20.4-36-20.4-81.6t18.9-81.6q18.9-36,52.5-56.1t75-20.1q40.8,0,74.1,19.8T994,219q19.2,35.4,19.2,80.4v5.4Zm-208.8-126.6a120.8,120.8,0,0,0-45,45.3q-16.8,29.1-18.6,65.1h253.8q-2.4-36-19.5-65.1t-45-45.3q-27.9-16.2-62.7-16.2t-63,16.2Z"/></clipPath><clipPath id="clip-path-24" transform="translate(417 -72)"><path class="cls-2" d="M-34.22,616.78q10.67,11,10.66,31.49v58.56h-9.6V649q0-16.9-8.26-25.73t-23-8.83q-16.89,0-26.78,10.56t-9.89,28.41v53.38h-9.6V649q0-16.9-8.25-25.73t-23-8.83q-16.9,0-26.79,10.56t-9.89,28.41v53.38h-9.6V606.61h9.22v21.5a37.08,37.08,0,0,1,14.88-16.42q9.88-5.85,23.52-5.85t23.14,6.14q9.5,6.15,13.53,18a39.12,39.12,0,0,1,15.65-17.66q10.65-6.54,24.86-6.53,18.63,0,29.28,10.94Zm151.09-1.44q10,9.51,10,27.94v63.55h-9.22V689a33.29,33.29,0,0,1-14,13.73q-9.21,4.9-22.08,4.9-16.7,0-26.4-7.87T45.45,679q0-12.48,8.93-20.26T82.89,651h34.37v-8.07q0-14-7.59-21.31T87.5,614.29a53.56,53.56,0,0,0-19.11,3.45A48,48,0,0,0,52.94,627l-4.8-6.91a53.37,53.37,0,0,1,18-10.47,65.73,65.73,0,0,1,22.08-3.74q18.63,0,28.61,9.5ZM104.1,694q8.75-5.76,13.16-16.71V658.45H83.08q-14.79,0-21.41,5.37t-6.62,14.79q0,9.78,7.29,15.45t20.55,5.67q12.48,0,21.21-5.76Zm124.4-82.28q9.8-5.85,23.81-5.85v9.41l-2.3-.2q-16.71,0-26.11,10.47t-9.41,29.09v52.22h-9.6V606.61h9.21v21.88a34.82,34.82,0,0,1,14.4-16.8ZM353,653.26l-26.11,23.81v29.76h-9.6V564.37h9.6v100.8L391,606.61H403.3l-43.2,40.51,47.43,59.71H395.62L353,653.26ZM549.3,659H463.1a41.83,41.83,0,0,0,5.95,20.83A38.07,38.07,0,0,0,484.12,694a45.43,45.43,0,0,0,21.41,5,46,46,0,0,0,18.14-3.55,35.32,35.32,0,0,0,13.92-10.47l5.57,6.34a42.62,42.62,0,0,1-16.42,12.09,57.11,57.11,0,0,1-48.09-2.3A47.35,47.35,0,0,1,460.31,683a51.87,51.87,0,0,1-6.62-26.3,54.48,54.48,0,0,1,6.24-26.21,46.06,46.06,0,0,1,17.18-18.14,49.67,49.67,0,0,1,49.06-.1,45.74,45.74,0,0,1,17.09,18,54,54,0,0,1,6.24,26.11l-.2,2.69Zm-66.62-40a35.93,35.93,0,0,0-13.54,13.25,43.13,43.13,0,0,0-5.85,19.29h76.8a40.39,40.39,0,0,0-5.76-19.2,37.3,37.3,0,0,0-32.64-18,38.36,38.36,0,0,0-19,4.7Zm184.78,81.5a23.94,23.94,0,0,1-9.12,5.28,35.71,35.71,0,0,1-11.42,1.83q-13,0-20.16-7.2t-7.1-20.07V614.86H601.22v-8.25h18.44V584.72h9.6v21.89h31.87v8.25H629.26v64.51q0,9.79,4.7,14.88t13.92,5.09q9.4,0,15.55-5.57l4,6.72ZM734.94,704q-11-3.65-17.09-9.22l4.41-7.68a50.72,50.72,0,0,0,15.84,8.64,59.78,59.78,0,0,0,20.26,3.46q15.17,0,22.37-5a15.92,15.92,0,0,0,7.2-13.83q0-6.33-3.94-10A24.35,24.35,0,0,0,774.3,665q-5.76-1.72-15.94-3.64a133.58,133.58,0,0,1-19.2-4.61,30.13,30.13,0,0,1-12.48-8.07q-5.19-5.56-5.18-15.36,0-11.89,9.88-19.68t28.13-7.77a68.58,68.58,0,0,1,19,2.69,47.65,47.65,0,0,1,15.36,7.1l-4.42,7.68a45.93,45.93,0,0,0-14-6.72,57,57,0,0,0-16.13-2.3q-14,0-21.12,5.18a16.1,16.1,0,0,0-7.1,13.63q0,6.72,4,10.47a25.34,25.34,0,0,0,9.89,5.56q5.85,1.83,16.41,3.94a141.05,141.05,0,0,1,18.91,4.51,28.74,28.74,0,0,1,12.2,7.78q5,5.37,5,14.78,0,12.48-10.37,20T758,707.6a72.38,72.38,0,0,1-23-3.65Z"/></clipPath><clipPath id="clip-path-25" transform="translate(417 -72)"><polygon class="cls-3" points="-202.39 398.82 -143.21 367.59 -105.52 375.9 -104.56 371.19 -144.36 361.81 -202.39 394.23 -273.14 371.06 -353.82 396.4 -351.03 401.08 -273.14 375.9 -202.39 398.82 -202.39 398.82"/></clipPath><clipPath id="clip-path-26" transform="translate(417 -72)"><polygon class="cls-3" points="-285.5 356.81 -191.42 345 -149.16 340.24 -104.17 368.98 -100.99 364.83 -148.02 334.66 -191.42 340.24 -281.59 353.09 -354.9 327.11 -386.07 350.3 -382.29 353.92 -353.81 333 -285.5 356.81 -285.5 356.81"/></clipPath><clipPath id="clip-path-27" transform="translate(417 -72)"><polygon class="cls-3" points="-380.98 346.28 -382.7 351.43 -337.24 368.93 -274.34 352.8 -274.34 347.86 -337.24 363.03 -380.98 346.28 -380.98 346.28"/></clipPath><clipPath id="clip-path-28" transform="translate(417 -72)"><polygon class="cls-3" points="-257.6 416.03 -195.81 389.04 -137.34 415.15 -133.35 411.42 -195.81 382.93 -257.6 410.51 -285.18 402.92 -324.04 418.19 -321.86 423.29 -285.18 408.51 -257.6 416.03 -257.6 416.03"/></clipPath><clipPath id="clip-path-29" transform="translate(417 -72)"><path class="cls-2" d="M-190.53,239.27l6.11,33.61-109.77,29.41,7-37.11,96.7-25.91Zm-8-43.9-3.6-19.8h-68.31l-7.71,41.13,79.62-21.33Zm22.1,121.41,8.22,45.18,3.58,14.4-36.8,19.51-72-21.51-36.72,10,4.78-22.44,2.09-11.19,126.85-34Z"/></clipPath><clipPath id="clip-path-30" transform="translate(417 -72)"><polyline class="cls-2" points="-233.95 108.03 -233.95 87 -239.22 87.08 -239.22 108.44"/></clipPath><clipPath id="clip-path-31" transform="translate(417 -72)"><rect class="cls-1" x="-248.16" y="149.41" width="22.64" height="29.39"/></clipPath><clipPath id="clip-path-32" transform="translate(417 -72)"><polygon class="cls-2" points="-236.52 94.03 -202.25 125.72 -270.8 125.72 -236.52 94.03 -236.52 94.03"/></clipPath><clipPath id="clip-path-33" transform="translate(417 -72)"><path class="cls-2" d="M-106.3,236.29h19.37a146.38,146.38,0,0,0-8.74-16.76,130.35,130.35,0,0,0-12.55-17.73A148.52,148.52,0,0,0-124,185a190,190,0,0,0-16.77-13.66c-12.54-9.2-27.17-15.91-38.88-20.32a153.13,153.13,0,0,0-22.19-6.45l.07,17.57a123.43,123.43,0,0,1,22.35,7.33c11.57,5.13,20.85,9.86,31.78,18.08A139.14,139.14,0,0,1-121.47,213a150.28,150.28,0,0,1,10.62,15c3,5,4.55,8.27,4.55,8.27Z"/></clipPath><clipPath id="clip-path-34" transform="translate(417 -72)"><rect class="cls-4" x="-402.94" y="-82.17" width="1419.12" height="792"/></clipPath></defs><title>cove_full_dark</title><g class="cls-6"><rect class="cls-7" x="402.14" y="57.03" width="1043.1" height="345.6"/></g><g class="cls-8"><rect class="cls-7" x="213.7" y="477.37" width="1015.82" height="173.23"/></g><g class="cls-9"><rect class="cls-7" x="48.18" y="274.81" width="279.25" height="69.27"/></g><g class="cls-10"><rect class="cls-7" x="15.93" y="240.11" width="315.08" height="71.87"/></g><g class="cls-11"><rect class="cls-7" x="19.3" y="259.28" width="138.36" height="52.65"/></g><g class="cls-12"><rect class="cls-7" x="77.96" y="295.93" width="220.69" height="70.37"/></g><g class="cls-13"><rect class="cls-7" x="91.85" y="88.57" width="175.52" height="250.3"/></g><g class="cls-14"><rect class="cls-7" x="162.78" width="35.27" height="51.44"/></g><g class="cls-15"><rect class="cls-7" x="153.84" y="62.41" width="52.64" height="59.39"/></g><g class="cls-16"><rect class="cls-7" x="131.2" y="7.03" width="98.55" height="61.68"/></g><g class="cls-17"><rect class="cls-7" x="200.19" y="57.59" width="144.88" height="121.71"/></g><g class="cls-18"><rect class="cls-7" y="56.77" width="345.72" height="344.02"/></g><g class="cls-9"><rect class="cls-7" x="48.18" y="274.81" width="279.25" height="69.27"/></g><g class="cls-10"><rect class="cls-7" x="15.93" y="240.11" width="315.08" height="71.87"/></g><g class="cls-11"><rect class="cls-7" x="19.3" y="259.28" width="138.36" height="52.65"/></g><g class="cls-12"><rect class="cls-7" x="77.96" y="295.93" width="220.69" height="70.37"/></g><g class="cls-13"><rect class="cls-7" x="91.85" y="88.57" width="175.52" height="250.3"/></g><g class="cls-14"><rect class="cls-7" x="162.78" width="35.27" height="51.44"/></g><g class="cls-15"><rect class="cls-7" x="153.84" y="62.41" width="52.64" height="59.39"/></g><g class="cls-16"><rect class="cls-7" x="131.2" y="7.03" width="98.55" height="61.68"/></g><g class="cls-17"><rect class="cls-7" x="200.19" y="57.59" width="144.88" height="121.71"/></g><g class="cls-18"><rect class="cls-7" y="56.77" width="345.72" height="344.02"/></g></svg>