<?xml version="1.0" encoding="utf-8"?>
<!-- Generator: Adobe Illustrator 22.0.0, SVG Export Plug-In . SVG Version: 6.00 Build 0)  -->
<svg version="1.1" id="Layer_1" xmlns="http://www.w3.org/2000/svg" xmlns:xlink="http://www.w3.org/1999/xlink" x="0px" y="0px"
	 viewBox="0 0 1445.2 804.8" style="enable-background:new 0 0 1445.2 804.8;" xml:space="preserve">
<style type="text/css">
	.st0{clip-path:url(#SVGID_3_);}
	.st1{clip-path:url(#SVGID_4_);fill:#30374B;}
	.st2{clip-path:url(#SVGID_7_);}
	.st3{clip-path:url(#SVGID_8_);fill:#30374B;}
	.st4{clip-path:url(#SVGID_11_);}
	.st5{clip-path:url(#SVGID_12_);fill:#30374B;}
	.st6{clip-path:url(#SVGID_15_);}
	.st7{clip-path:url(#SVGID_16_);fill:#30374B;}
	.st8{clip-path:url(#SVGID_19_);}
	.st9{clip-path:url(#SVGID_20_);fill:#30374B;}
	.st10{clip-path:url(#SVGID_23_);}
	.st11{clip-path:url(#SVGID_24_);fill:#30374B;}
	.st12{clip-path:url(#SVGID_27_);}
	.st13{clip-path:url(#SVGID_28_);fill:#30374B;}
	.st14{clip-path:url(#SVGID_31_);}
	.st15{clip-path:url(#SVGID_32_);fill:#30374B;}
	.st16{clip-path:url(#SVGID_34_);fill:#30374B;}
	.st17{clip-path:url(#SVGID_37_);}
	.st18{clip-path:url(#SVGID_38_);fill:#30374B;}
	.st19{clip-path:url(#SVGID_41_);}
	.st20{clip-path:url(#SVGID_42_);fill:#30374B;}
	.st21{clip-path:url(#SVGID_46_);}
	.st22{clip-path:url(#SVGID_47_);}
	.st23{clip-path:url(#SVGID_48_);fill:#30374B;}
	.st24{clip-path:url(#SVGID_51_);}
	.st25{clip-path:url(#SVGID_52_);fill:#30374B;}
	.st26{clip-path:url(#SVGID_55_);}
	.st27{clip-path:url(#SVGID_56_);fill:#30374B;}
	.st28{clip-path:url(#SVGID_59_);}
	.st29{clip-path:url(#SVGID_60_);fill:#30374B;}
	.st30{clip-path:url(#SVGID_63_);}
	.st31{clip-path:url(#SVGID_64_);fill:#30374B;}
	.st32{clip-path:url(#SVGID_67_);}
	.st33{clip-path:url(#SVGID_68_);fill:#30374B;}
	.st34{clip-path:url(#SVGID_71_);}
	.st35{clip-path:url(#SVGID_72_);fill:#30374B;}
	.st36{clip-path:url(#SVGID_74_);fill:#30374B;}
	.st37{clip-path:url(#SVGID_77_);}
	.st38{clip-path:url(#SVGID_78_);fill:#30374B;}
	.st39{clip-path:url(#SVGID_81_);}
	.st40{clip-path:url(#SVGID_82_);fill:#30374B;}
	.st41{clip-path:url(#SVGID_86_);}
	.st42{clip-path:url(#SVGID_87_);}
	.st43{clip-path:url(#SVGID_88_);fill:#30374B;}
</style>
<g>
	<g>
		<defs>
			<rect id="SVGID_1_" x="13.9" y="168" width="1419" height="624"/>
		</defs>
		<defs>
			<path id="SVGID_2_" d="M491.8,521.7c-23.4-13.4-41.7-32.1-54.9-56.1c-13.2-24-19.8-51.2-19.8-81.6c0-30.4,6.6-57.6,19.8-81.6
				c13.2-24,31.5-42.7,54.9-56.1c23.4-13.4,49.5-20.1,78.3-20.1c29.2,0,55.4,6.7,78.6,20.1c23.2,13.4,41.4,32.1,54.6,56.1
				c13.2,24,19.8,51.2,19.8,81.6c0,30.4-6.6,57.6-19.8,81.6c-13.2,24-31.4,42.7-54.6,56.1c-23.2,13.4-49.4,20.1-78.6,20.1
				C541.3,541.8,515.2,535.1,491.8,521.7L491.8,521.7z M638.2,506.1c20.2-11.8,36.1-28.3,47.7-49.5c11.6-21.2,17.4-45.4,17.4-72.6
				c0-27.2-5.8-51.3-17.4-72.3c-11.6-21-27.5-37.4-47.7-49.2c-20.2-11.8-42.9-17.7-68.1-17.7c-25.2,0-47.9,5.9-68.1,17.7
				s-36.1,28.2-47.7,49.2c-11.6,21-17.4,45.1-17.4,72.3c0,27.2,5.8,51.4,17.4,72.6c11.6,21.2,27.5,37.7,47.7,49.5
				s42.9,17.7,68.1,17.7C595.3,523.8,618,517.9,638.2,506.1L638.2,506.1z M1082.7,228.6L940.5,540h-19.8L778.5,228.6h21.6
				l130.8,289.2l130.8-289.2H1082.7L1082.7,228.6z M1430.2,387h-273c0.4,26.4,6.6,50,18.6,70.8c12,20.8,28.5,37,49.5,48.6
				c21,11.6,44.5,17.4,70.5,17.4c21.2,0,40.8-3.9,58.8-11.7c18-7.8,32.8-19.3,44.4-34.5l12.6,13.2c-14,16.4-31,29-51,37.8
				c-20,8.8-41.6,13.2-64.8,13.2c-30.4,0-57.5-6.7-81.3-20.1c-23.8-13.4-42.5-32.1-56.1-56.1c-13.6-24-20.4-51.2-20.4-81.6
				c0-30.4,6.3-57.6,18.9-81.6c12.6-24,30.1-42.7,52.5-56.1c22.4-13.4,47.4-20.1,75-20.1c27.2,0,51.9,6.6,74.1,19.8
				c22.2,13.2,39.7,31.6,52.5,55.2c12.8,23.6,19.2,50.4,19.2,80.4V387L1430.2,387z M1221.4,260.4c-18.8,10.8-33.8,25.9-45,45.3
				c-11.2,19.4-17.4,41.1-18.6,65.1h253.8c-1.6-24-8.1-45.7-19.5-65.1c-11.4-19.4-26.4-34.5-45-45.3s-39.5-16.2-62.7-16.2
				C1261.2,244.2,1240.2,249.6,1221.4,260.4L1221.4,260.4z"/>
		</defs>
		<clipPath id="SVGID_3_">
			<use xlink:href="#SVGID_1_"  style="overflow:visible;"/>
		</clipPath>
		<clipPath id="SVGID_4_" class="st0">
			<use xlink:href="#SVGID_2_"  style="overflow:visible;"/>
		</clipPath>
		<rect x="402.1" y="211.2" class="st1" width="1043.1" height="345.6"/>
	</g>
	<g>
		<defs>
			<rect id="SVGID_5_" x="13.9" y="168" width="1419" height="624"/>
		</defs>
		<defs>
			<path id="SVGID_6_" d="M382.8,699c7.1,7.3,10.7,17.8,10.7,31.5V789h-9.6v-57.8c0-11.3-2.8-19.8-8.3-25.7s-13.2-8.8-23-8.8
				c-11.3,0-20.2,3.5-26.8,10.6s-9.9,16.5-9.9,28.4V789h-9.6v-57.8c0-11.3-2.8-19.8-8.3-25.7s-13.2-8.8-23-8.8
				c-11.3,0-20.2,3.5-26.8,10.6c-6.6,7-9.9,16.5-9.9,28.4V789h-9.6V688.8h9.2v21.5c3.3-7,8.3-12.5,14.9-16.4
				c6.6-3.9,14.4-5.9,23.5-5.9s16.8,2,23.1,6.1c6.3,4.1,10.8,10.1,13.5,18c3.3-7.4,8.5-13.3,15.6-17.7c7.1-4.4,15.4-6.5,24.9-6.5
				C365.9,688,375.7,691.7,382.8,699L382.8,699z M533.9,697.5c6.7,6.3,10,15.6,10,27.9V789h-9.2v-17.9c-3.2,5.9-7.9,10.5-14,13.7
				c-6.1,3.3-13.5,4.9-22.1,4.9c-11.1,0-19.9-2.6-26.4-7.9c-6.5-5.2-9.7-12.2-9.7-20.7c0-8.3,3-15.1,8.9-20.3
				c6-5.2,15.5-7.8,28.5-7.8h34.4v-8.1c0-9.3-2.5-16.4-7.6-21.3c-5.1-4.9-12.4-7.3-22.2-7.3c-6.7,0-13,1.2-19.1,3.5
				c-6.1,2.3-11.2,5.4-15.5,9.2l-4.8-6.9c5-4.5,11-8,18-10.5c7-2.5,14.4-3.7,22.1-3.7C517.7,688,527.2,691.2,533.9,697.5
				L533.9,697.5z M521.1,776.1c5.8-3.8,10.2-9.4,13.2-16.7v-18.8h-34.2c-9.9,0-17,1.8-21.4,5.4c-4.4,3.6-6.6,8.5-6.6,14.8
				c0,6.5,2.4,11.7,7.3,15.5c4.9,3.8,11.7,5.7,20.5,5.7C508.2,781.9,515.3,780,521.1,776.1L521.1,776.1z M645.5,693.9
				c6.5-3.9,14.5-5.9,23.8-5.9v9.4l-2.3-0.2c-11.1,0-19.8,3.5-26.1,10.5c-6.3,7-9.4,16.7-9.4,29.1V789h-9.6V688.8h9.2v21.9
				C634.2,703.4,639,697.8,645.5,693.9L645.5,693.9z M770,735.4l-26.1,23.8V789h-9.6V646.5h9.6v100.8l64.1-58.6h12.3l-43.2,40.5
				l47.4,59.7h-11.9L770,735.4L770,735.4z M966.3,741.2h-86.2c0.3,7.8,2.2,14.8,6,20.8s8.7,10.8,15.1,14.1c6.3,3.3,13.5,5,21.4,5
				c6.5,0,12.6-1.2,18.1-3.6c5.6-2.4,10.2-5.9,13.9-10.5l5.6,6.3c-4.4,5.2-9.8,9.3-16.4,12.1c-6.6,2.8-13.7,4.2-21.4,4.2
				c-10,0-18.9-2.2-26.7-6.5c-7.8-4.4-13.9-10.4-18.3-18c-4.4-7.7-6.6-16.4-6.6-26.3c0-9.7,2.1-18.5,6.2-26.2
				c4.2-7.7,9.9-13.8,17.2-18.1c7.3-4.4,15.5-6.5,24.6-6.5s17.2,2.1,24.5,6.4c7.2,4.3,12.9,10.3,17.1,18c4.2,7.7,6.2,16.4,6.2,26.1
				L966.3,741.2L966.3,741.2z M899.7,701.2c-5.6,3.1-10.1,7.6-13.5,13.2c-3.4,5.7-5.3,12.1-5.9,19.3h76.8
				c-0.4-7.2-2.3-13.6-5.8-19.2c-3.5-5.6-8-10-13.6-13.2c-5.6-3.2-12-4.8-19-4.8S905.3,698,899.7,701.2L899.7,701.2z M1084.5,782.7
				c-2.4,2.3-5.5,4.1-9.1,5.3c-3.6,1.2-7.5,1.8-11.4,1.8c-8.7,0-15.4-2.4-20.2-7.2c-4.7-4.8-7.1-11.5-7.1-20.1V697h-18.4v-8.3h18.4
				v-21.9h9.6v21.9h31.9v8.3h-31.9v64.5c0,6.5,1.6,11.5,4.7,14.9c3.1,3.4,7.8,5.1,13.9,5.1c6.3,0,11.5-1.9,15.6-5.6L1084.5,782.7
				L1084.5,782.7z M1151.9,786.1c-7.3-2.4-13-5.5-17.1-9.2l4.4-7.7c4.1,3.5,9.4,6.3,15.8,8.6c6.5,2.3,13.2,3.5,20.3,3.5
				c10.1,0,17.6-1.7,22.4-5c4.8-3.3,7.2-7.9,7.2-13.8c0-4.2-1.3-7.6-3.9-10c-2.6-2.4-5.9-4.2-9.7-5.4s-9.2-2.4-15.9-3.6
				c-7.9-1.4-14.3-2.9-19.2-4.6c-4.9-1.7-9-4.4-12.5-8.1c-3.5-3.7-5.2-8.8-5.2-15.4c0-7.9,3.3-14.5,9.9-19.7s16-7.8,28.1-7.8
				c6.4,0,12.7,0.9,19,2.7s11.4,4.2,15.4,7.1l-4.4,7.7c-4.1-2.9-8.8-5.2-14-6.7c-5.2-1.5-10.6-2.3-16.1-2.3
				c-9.3,0-16.4,1.7-21.1,5.2c-4.7,3.5-7.1,8-7.1,13.6c0,4.5,1.3,8,4,10.5c2.7,2.5,6,4.4,9.9,5.6c3.9,1.2,9.4,2.5,16.4,3.9
				c7.8,1.4,14.1,2.9,18.9,4.5c4.8,1.6,8.9,4.2,12.2,7.8c3.3,3.6,5,8.5,5,14.8c0,8.3-3.5,15-10.4,20c-6.9,5-16.6,7.5-29.2,7.5
				C1166.9,789.8,1159.2,788.6,1151.9,786.1L1151.9,786.1z"/>
		</defs>
		<clipPath id="SVGID_7_">
			<use xlink:href="#SVGID_5_"  style="overflow:visible;"/>
		</clipPath>
		<clipPath id="SVGID_8_" class="st2">
			<use xlink:href="#SVGID_6_"  style="overflow:visible;"/>
		</clipPath>
		<rect x="213.7" y="631.5" class="st3" width="1015.8" height="173.2"/>
	</g>
	<g>
		<defs>
			<rect id="SVGID_9_" x="13.9" y="168" width="1419" height="624"/>
		</defs>
		<defs>
			<polygon id="SVGID_10_" points="214.6,481 273.8,449.8 311.5,458.1 312.4,453.4 272.6,444 214.6,476.4 143.9,453.2 63.2,478.6 
				66,483.3 143.9,458.1 214.6,481 			"/>
		</defs>
		<clipPath id="SVGID_11_">
			<use xlink:href="#SVGID_9_"  style="overflow:visible;"/>
		</clipPath>
		<clipPath id="SVGID_12_" class="st4">
			<use xlink:href="#SVGID_10_"  style="overflow:visible;"/>
		</clipPath>
		<rect x="48.2" y="429" class="st5" width="279.3" height="69.3"/>
	</g>
	<g>
		<defs>
			<rect id="SVGID_13_" x="13.9" y="168" width="1419" height="624"/>
		</defs>
		<defs>
			<polygon id="SVGID_14_" points="131.5,439 225.6,427.2 267.8,422.4 312.8,451.1 316,447 269,416.8 225.6,422.4 135.4,435.3 
				62.1,409.3 30.9,432.5 34.7,436.1 63.2,415.2 131.5,439 			"/>
		</defs>
		<clipPath id="SVGID_15_">
			<use xlink:href="#SVGID_13_"  style="overflow:visible;"/>
		</clipPath>
		<clipPath id="SVGID_16_" class="st6">
			<use xlink:href="#SVGID_14_"  style="overflow:visible;"/>
		</clipPath>
		<rect x="15.9" y="394.3" class="st7" width="315.1" height="71.9"/>
	</g>
	<g>
		<defs>
			<rect id="SVGID_17_" x="13.9" y="168" width="1419" height="624"/>
		</defs>
		<defs>
			<polygon id="SVGID_18_" points="36,428.4 34.3,433.6 79.8,451.1 142.7,435 142.7,430 79.8,445.2 36,428.4 			"/>
		</defs>
		<clipPath id="SVGID_19_">
			<use xlink:href="#SVGID_17_"  style="overflow:visible;"/>
		</clipPath>
		<clipPath id="SVGID_20_" class="st8">
			<use xlink:href="#SVGID_18_"  style="overflow:visible;"/>
		</clipPath>
		<rect x="19.3" y="413.4" class="st9" width="138.4" height="52.7"/>
	</g>
	<g>
		<defs>
			<rect id="SVGID_21_" x="13.9" y="168" width="1419" height="624"/>
		</defs>
		<defs>
			<polygon id="SVGID_22_" points="159.4,498.2 221.2,471.2 279.7,497.3 283.6,493.6 221.2,465.1 159.4,492.7 131.8,485.1 93,500.4 
				95.1,505.5 131.8,490.7 159.4,498.2 			"/>
		</defs>
		<clipPath id="SVGID_23_">
			<use xlink:href="#SVGID_21_"  style="overflow:visible;"/>
		</clipPath>
		<clipPath id="SVGID_24_" class="st10">
			<use xlink:href="#SVGID_22_"  style="overflow:visible;"/>
		</clipPath>
		<rect x="78" y="450.1" class="st11" width="220.7" height="70.4"/>
	</g>
	<g>
		<defs>
			<rect id="SVGID_25_" x="13.9" y="168" width="1419" height="624"/>
		</defs>
		<defs>
			<path id="SVGID_26_" d="M226.5,321.4l6.1,33.6l-109.8,29.4l7-37.1L226.5,321.4L226.5,321.4z M218.5,277.5l-3.6-19.8h-68.3
				l-7.7,41.1L218.5,277.5L218.5,277.5z M240.6,399l8.2,45.2l3.6,14.4L215.6,478l-72-21.5l-36.7,10l4.8-22.4l2.1-11.2L240.6,399
				L240.6,399z"/>
		</defs>
		<clipPath id="SVGID_27_">
			<use xlink:href="#SVGID_25_"  style="overflow:visible;"/>
		</clipPath>
		<clipPath id="SVGID_28_" class="st12">
			<use xlink:href="#SVGID_26_"  style="overflow:visible;"/>
		</clipPath>
		<rect x="91.9" y="242.7" class="st13" width="175.5" height="250.3"/>
	</g>
	<g>
		<defs>
			<rect id="SVGID_29_" x="13.9" y="168" width="1419" height="624"/>
		</defs>
		<defs>
			<polyline id="SVGID_30_" points="183,190.2 183,169.2 177.8,169.2 177.8,190.6 			"/>
		</defs>
		<clipPath id="SVGID_31_">
			<use xlink:href="#SVGID_29_"  style="overflow:visible;"/>
		</clipPath>
		<clipPath id="SVGID_32_" class="st14">
			<use xlink:href="#SVGID_30_"  style="overflow:visible;"/>
		</clipPath>
		<rect x="162.8" y="154.2" class="st15" width="35.3" height="51.4"/>
	</g>
	<g>
		<defs>
			<rect id="SVGID_33_" x="168.8" y="231.6" width="22.6" height="29.4"/>
		</defs>
		<clipPath id="SVGID_34_">
			<use xlink:href="#SVGID_33_"  style="overflow:visible;"/>
		</clipPath>
		<rect x="153.8" y="216.6" class="st16" width="52.6" height="59.4"/>
	</g>
	<g>
		<defs>
			<rect id="SVGID_35_" x="13.9" y="168" width="1419" height="624"/>
		</defs>
		<defs>
			<polygon id="SVGID_36_" points="180.5,176.2 214.8,207.9 146.2,207.9 180.5,176.2 			"/>
		</defs>
		<clipPath id="SVGID_37_">
			<use xlink:href="#SVGID_35_"  style="overflow:visible;"/>
		</clipPath>
		<clipPath id="SVGID_38_" class="st17">
			<use xlink:href="#SVGID_36_"  style="overflow:visible;"/>
		</clipPath>
		<rect x="131.2" y="161.2" class="st18" width="98.5" height="61.7"/>
	</g>
	<g>
		<defs>
			<rect id="SVGID_39_" x="13.9" y="168" width="1419" height="624"/>
		</defs>
		<defs>
			<path id="SVGID_40_" d="M310.7,318.5h19.4c0,0-3.2-7.6-8.7-16.8c-5.5-9.2-8.2-12.3-12.6-17.7c-5.2-6.6-10.6-12-15.7-16.8
				c-5.2-4.8-10.4-9-16.8-13.7c-12.5-9.2-27.2-15.9-38.9-20.3c-11.7-4.4-22.2-6.4-22.2-6.4l0.1,17.6c0,0,10.8,2.2,22.3,7.3
				c11.6,5.1,20.9,9.9,31.8,18.1c8,6,17.5,14.4,26.1,25.4c4.4,5.6,7.6,10.1,10.6,15C309.1,315.1,310.7,318.5,310.7,318.5
				L310.7,318.5z"/>
		</defs>
		<clipPath id="SVGID_41_">
			<use xlink:href="#SVGID_39_"  style="overflow:visible;"/>
		</clipPath>
		<clipPath id="SVGID_42_" class="st19">
			<use xlink:href="#SVGID_40_"  style="overflow:visible;"/>
		</clipPath>
		<rect x="200.2" y="211.8" class="st20" width="144.9" height="121.7"/>
	</g>
	<g>
		<defs>
			<rect id="SVGID_43_" x="13.9" y="168" width="1419" height="624"/>
		</defs>
		<defs>
			<path id="SVGID_44_" d="M311.7,442.8h19.1c0,0-1.6,4.3-4.5,9.8c-2.9,5.5-4.5,7.8-7.2,12.1c-6.8,10.5-10.4,14.8-15.8,20.7
				c-13.6,15-22.9,21.4-30.1,26.2c-6.3,4.2-15.2,9.4-20.3,11.7c-5.1,2.3-11,4.9-22.1,8.6c-18,6.1-37.6,7.5-37.6,7.5
				s-11.5,0.8-17.9,0.5c-6.4-0.2-19-0.9-33.4-4.1c-27.2-6.1-47.3-18.3-52.7-21.9c-10.9-7.1-17-11.9-22.3-16.9
				c-8.4-7.9-13.7-13-20.4-22.2c-4.4-6-11.1-16-15-24c-3.9-8.1-4.6-9.9-6-13.6c-1.6-4.3-3.2-8.4-4.6-13.4c-1.3-5-2.7-11.1-3.4-15.2
				c-0.6-3.6-1.4-8.6-1.7-12c-0.4-3.4-0.6-10.7-0.6-10.7s-1.2-16.9,3.9-39.2c2.9-12.6,7.6-25.2,13.8-36.8c4.1-7.8,7-12.1,10.6-17.3
				c3.7-5.2,5.4-7.5,8.4-11c7.8-9.2,15.8-16.9,26.6-25.2c10.8-8.2,23.1-14.8,31.7-18.7c17.5-7.8,36.6-11.7,36.6-11.7v17.6
				c0,0-17.6,2.8-38.8,14.2c-10.4,5.6-16.5,10.3-20.9,13.6c-4.3,3.3-15.2,12.7-23.3,22.8c-8.4,10.5-13.9,19.5-18.4,29.2
				c-4.5,9.7-6.2,15.2-8.1,22c-1.9,6.7-3.5,15.2-4,21.1c-0.2,2.6-0.6,5.5-0.7,9.6c-0.2,4.2,0,11,0,11s0.2,6.9,1.6,16
				c0.6,3.7,2.1,13.1,6.8,25.9c2.2,6,6.7,16.2,13.7,27.2c5,7.9,11.6,16,19.3,23.8c7.7,7.8,16.2,13.9,18.3,15.5
				c4.9,3.6,11.4,7.2,16.3,10c1.3,0.7,4.1,2.3,12.9,6c8.8,3.8,16.8,6.1,26.2,8.2c20.2,4.4,38.3,3.1,38.3,3.1s11.7-0.5,24.5-3.1
				c12.8-2.6,27.2-7,44.2-16.9c8.2-4.7,12.5-8,19.9-13.8c7.4-5.8,15.8-14.7,21.5-21.9C306.4,454.2,311.7,442.8,311.7,442.8
				L311.7,442.8z"/>
		</defs>
		<defs>
			<rect id="SVGID_45_" x="14.1" width="1419.1" height="792"/>
		</defs>
		<clipPath id="SVGID_46_">
			<use xlink:href="#SVGID_43_"  style="overflow:visible;"/>
		</clipPath>
		<clipPath id="SVGID_47_" class="st21">
			<use xlink:href="#SVGID_44_"  style="overflow:visible;"/>
		</clipPath>
		<clipPath id="SVGID_48_" class="st22">
			<use xlink:href="#SVGID_45_"  style="overflow:visible;"/>
		</clipPath>
		<rect y="210.9" class="st23" width="345.7" height="344"/>
	</g>
	<g>
		<defs>
			<rect id="SVGID_49_" x="13.9" y="168" width="1419" height="624"/>
		</defs>
		<defs>
			<polygon id="SVGID_50_" points="214.6,481 273.8,449.8 311.5,458.1 312.4,453.4 272.6,444 214.6,476.4 143.9,453.2 63.2,478.6 
				66,483.3 143.9,458.1 214.6,481 			"/>
		</defs>
		<clipPath id="SVGID_51_">
			<use xlink:href="#SVGID_49_"  style="overflow:visible;"/>
		</clipPath>
		<clipPath id="SVGID_52_" class="st24">
			<use xlink:href="#SVGID_50_"  style="overflow:visible;"/>
		</clipPath>
		<rect x="48.2" y="429" class="st25" width="279.3" height="69.3"/>
	</g>
	<g>
		<defs>
			<rect id="SVGID_53_" x="13.9" y="168" width="1419" height="624"/>
		</defs>
		<defs>
			<polygon id="SVGID_54_" points="131.5,439 225.6,427.2 267.8,422.4 312.8,451.1 316,447 269,416.8 225.6,422.4 135.4,435.3 
				62.1,409.3 30.9,432.5 34.7,436.1 63.2,415.2 131.5,439 			"/>
		</defs>
		<clipPath id="SVGID_55_">
			<use xlink:href="#SVGID_53_"  style="overflow:visible;"/>
		</clipPath>
		<clipPath id="SVGID_56_" class="st26">
			<use xlink:href="#SVGID_54_"  style="overflow:visible;"/>
		</clipPath>
		<rect x="15.9" y="394.3" class="st27" width="315.1" height="71.9"/>
	</g>
	<g>
		<defs>
			<rect id="SVGID_57_" x="13.9" y="168" width="1419" height="624"/>
		</defs>
		<defs>
			<polygon id="SVGID_58_" points="36,428.4 34.3,433.6 79.8,451.1 142.7,435 142.7,430 79.8,445.2 36,428.4 			"/>
		</defs>
		<clipPath id="SVGID_59_">
			<use xlink:href="#SVGID_57_"  style="overflow:visible;"/>
		</clipPath>
		<clipPath id="SVGID_60_" class="st28">
			<use xlink:href="#SVGID_58_"  style="overflow:visible;"/>
		</clipPath>
		<rect x="19.3" y="413.4" class="st29" width="138.4" height="52.7"/>
	</g>
	<g>
		<defs>
			<rect id="SVGID_61_" x="13.9" y="168" width="1419" height="624"/>
		</defs>
		<defs>
			<polygon id="SVGID_62_" points="159.4,498.2 221.2,471.2 279.7,497.3 283.6,493.6 221.2,465.1 159.4,492.7 131.8,485.1 93,500.4 
				95.1,505.5 131.8,490.7 159.4,498.2 			"/>
		</defs>
		<clipPath id="SVGID_63_">
			<use xlink:href="#SVGID_61_"  style="overflow:visible;"/>
		</clipPath>
		<clipPath id="SVGID_64_" class="st30">
			<use xlink:href="#SVGID_62_"  style="overflow:visible;"/>
		</clipPath>
		<rect x="78" y="450.1" class="st31" width="220.7" height="70.4"/>
	</g>
	<g>
		<defs>
			<rect id="SVGID_65_" x="13.9" y="168" width="1419" height="624"/>
		</defs>
		<defs>
			<path id="SVGID_66_" d="M226.5,321.4l6.1,33.6l-109.8,29.4l7-37.1L226.5,321.4L226.5,321.4z M218.5,277.5l-3.6-19.8h-68.3
				l-7.7,41.1L218.5,277.5L218.5,277.5z M240.6,399l8.2,45.2l3.6,14.4L215.6,478l-72-21.5l-36.7,10l4.8-22.4l2.1-11.2L240.6,399
				L240.6,399z"/>
		</defs>
		<clipPath id="SVGID_67_">
			<use xlink:href="#SVGID_65_"  style="overflow:visible;"/>
		</clipPath>
		<clipPath id="SVGID_68_" class="st32">
			<use xlink:href="#SVGID_66_"  style="overflow:visible;"/>
		</clipPath>
		<rect x="91.9" y="242.7" class="st33" width="175.5" height="250.3"/>
	</g>
	<g>
		<defs>
			<rect id="SVGID_69_" x="13.9" y="168" width="1419" height="624"/>
		</defs>
		<defs>
			<polyline id="SVGID_70_" points="183,190.2 183,169.2 177.8,169.2 177.8,190.6 			"/>
		</defs>
		<clipPath id="SVGID_71_">
			<use xlink:href="#SVGID_69_"  style="overflow:visible;"/>
		</clipPath>
		<clipPath id="SVGID_72_" class="st34">
			<use xlink:href="#SVGID_70_"  style="overflow:visible;"/>
		</clipPath>
		<rect x="162.8" y="154.2" class="st35" width="35.3" height="51.4"/>
	</g>
	<g>
		<defs>
			<rect id="SVGID_73_" x="168.8" y="231.6" width="22.6" height="29.4"/>
		</defs>
		<clipPath id="SVGID_74_">
			<use xlink:href="#SVGID_73_"  style="overflow:visible;"/>
		</clipPath>
		<rect x="153.8" y="216.6" class="st36" width="52.6" height="59.4"/>
	</g>
	<g>
		<defs>
			<rect id="SVGID_75_" x="13.9" y="168" width="1419" height="624"/>
		</defs>
		<defs>
			<polygon id="SVGID_76_" points="180.5,176.2 214.8,207.9 146.2,207.9 180.5,176.2 			"/>
		</defs>
		<clipPath id="SVGID_77_">
			<use xlink:href="#SVGID_75_"  style="overflow:visible;"/>
		</clipPath>
		<clipPath id="SVGID_78_" class="st37">
			<use xlink:href="#SVGID_76_"  style="overflow:visible;"/>
		</clipPath>
		<rect x="131.2" y="161.2" class="st38" width="98.5" height="61.7"/>
	</g>
	<g>
		<defs>
			<rect id="SVGID_79_" x="13.9" y="168" width="1419" height="624"/>
		</defs>
		<defs>
			<path id="SVGID_80_" d="M310.7,318.5h19.4c0,0-3.2-7.6-8.7-16.8c-5.5-9.2-8.2-12.3-12.6-17.7c-5.2-6.6-10.6-12-15.7-16.8
				c-5.2-4.8-10.4-9-16.8-13.7c-12.5-9.2-27.2-15.9-38.9-20.3c-11.7-4.4-22.2-6.4-22.2-6.4l0.1,17.6c0,0,10.8,2.2,22.3,7.3
				c11.6,5.1,20.9,9.9,31.8,18.1c8,6,17.5,14.4,26.1,25.4c4.4,5.6,7.6,10.1,10.6,15C309.1,315.1,310.7,318.5,310.7,318.5
				L310.7,318.5z"/>
		</defs>
		<clipPath id="SVGID_81_">
			<use xlink:href="#SVGID_79_"  style="overflow:visible;"/>
		</clipPath>
		<clipPath id="SVGID_82_" class="st39">
			<use xlink:href="#SVGID_80_"  style="overflow:visible;"/>
		</clipPath>
		<rect x="200.2" y="211.8" class="st40" width="144.9" height="121.7"/>
	</g>
	<g>
		<defs>
			<rect id="SVGID_83_" x="13.9" y="168" width="1419" height="624"/>
		</defs>
		<defs>
			<path id="SVGID_84_" d="M311.7,442.8h19.1c0,0-1.6,4.3-4.5,9.8c-2.9,5.5-4.5,7.8-7.2,12.1c-6.8,10.5-10.4,14.8-15.8,20.7
				c-13.6,15-22.9,21.4-30.1,26.2c-6.3,4.2-15.2,9.4-20.3,11.7c-5.1,2.3-11,4.9-22.1,8.6c-18,6.1-37.6,7.5-37.6,7.5
				s-11.5,0.8-17.9,0.5c-6.4-0.2-19-0.9-33.4-4.1c-27.2-6.1-47.3-18.3-52.7-21.9c-10.9-7.1-17-11.9-22.3-16.9
				c-8.4-7.9-13.7-13-20.4-22.2c-4.4-6-11.1-16-15-24c-3.9-8.1-4.6-9.9-6-13.6c-1.6-4.3-3.2-8.4-4.6-13.4c-1.3-5-2.7-11.1-3.4-15.2
				c-0.6-3.6-1.4-8.6-1.7-12c-0.4-3.4-0.6-10.7-0.6-10.7s-1.2-16.9,3.9-39.2c2.9-12.6,7.6-25.2,13.8-36.8c4.1-7.8,7-12.1,10.6-17.3
				c3.7-5.2,5.4-7.5,8.4-11c7.8-9.2,15.8-16.9,26.6-25.2c10.8-8.2,23.1-14.8,31.7-18.7c17.5-7.8,36.6-11.7,36.6-11.7v17.6
				c0,0-17.6,2.8-38.8,14.2c-10.4,5.6-16.5,10.3-20.9,13.6c-4.3,3.3-15.2,12.7-23.3,22.8c-8.4,10.5-13.9,19.5-18.4,29.2
				c-4.5,9.7-6.2,15.2-8.1,22c-1.9,6.7-3.5,15.2-4,21.1c-0.2,2.6-0.6,5.5-0.7,9.6c-0.2,4.2,0,11,0,11s0.2,6.9,1.6,16
				c0.6,3.7,2.1,13.1,6.8,25.9c2.2,6,6.7,16.2,13.7,27.2c5,7.9,11.6,16,19.3,23.8c7.7,7.8,16.2,13.9,18.3,15.5
				c4.9,3.6,11.4,7.2,16.3,10c1.3,0.7,4.1,2.3,12.9,6c8.8,3.8,16.8,6.1,26.2,8.2c20.2,4.4,38.3,3.1,38.3,3.1s11.7-0.5,24.5-3.1
				c12.8-2.6,27.2-7,44.2-16.9c8.2-4.7,12.5-8,19.9-13.8c7.4-5.8,15.8-14.7,21.5-21.9C306.4,454.2,311.7,442.8,311.7,442.8
				L311.7,442.8z"/>
		</defs>
		<defs>
			<rect id="SVGID_85_" x="14.1" width="1419.1" height="792"/>
		</defs>
		<clipPath id="SVGID_86_">
			<use xlink:href="#SVGID_83_"  style="overflow:visible;"/>
		</clipPath>
		<clipPath id="SVGID_87_" class="st41">
			<use xlink:href="#SVGID_84_"  style="overflow:visible;"/>
		</clipPath>
		<clipPath id="SVGID_88_" class="st42">
			<use xlink:href="#SVGID_85_"  style="overflow:visible;"/>
		</clipPath>
		<rect y="210.9" class="st43" width="345.7" height="344"/>
	</g>
</g>
</svg>
