<?xml version="1.0" encoding="UTF-8"?>
<svg width="472px" height="208px" viewBox="0 0 472 208" version="1.1" xmlns="http://www.w3.org/2000/svg" xmlns:xlink="http://www.w3.org/1999/xlink">
    <!-- Generator: Sketch 41.2 (35397) - http://www.bohemiancoding.com/sketch -->
    <title>Group</title>
    <desc>Created with Sketch.</desc>
    <defs></defs>
    <g id="Page-1" stroke="none" stroke-width="1" fill="none" fill-rule="evenodd">
        <g id="Group" transform="translate(-13.000000, -70.000000)" fill="#32394B">
            <text id="ove" font-family="Montserrat-ExtraLight, Montserrat" font-size="200" font-weight="300" letter-spacing="10.0500002">
                <tspan x="137" y="194">ove</tspan>
            </text>
            <text id="markets" font-family="Montserrat-Light, Montserrat" font-size="64" font-weight="300" letter-spacing="12.8266659">
                <tspan x="77.8026694" y="277">markets</tspan>
            </text>
            <g id="Group-32" transform="translate(13.000000, 70.000000)">
                <g id="Group-2" transform="translate(5.351558, 80.237109)">
                    <polygon id="Path-2" points="61.5362041 24.0936337 81.264499 13.683753 93.826426 16.4539345 94.1453996 14.8811925 80.8801653 11.7564286 61.5362041 22.5611451 37.9522074 14.8377533 11.061667 23.287296 11.9911927 24.847574 37.9522074 16.4539345"></polygon>
                    <polygon id="Path-3" points="33.8320337 10.0876509 65.1933355 6.15440595 79.280198 4.56508381 94.2755781 14.1458028 95.3360088 12.7636474 79.6589206 2.70633281 65.1933355 4.56508381 35.1365662 8.84958603 10.6985982 0.188218632 0.310294213 7.92032635 1.56922143 9.12465027 11.0646697 2.15193904"></polygon>
                    <polygon id="Path-18" points="2.0073472 6.57904788 1.43283257 8.2947602 16.5863497 14.1299248 37.552505 8.75363436 37.552505 7.10429007 16.5863497 12.1612375"></polygon>
                    <polygon id="Path-13" points="43.1330385 29.8305912 63.731562 20.8316151 83.2209543 29.5358984 84.5489271 28.2934096 63.731562 18.7946197 43.1330385 27.9895268 33.9421464 25.4608613 20.9868106 30.5505975 21.7152174 32.2506261 33.9421464 27.3214746"></polygon>
                </g>
                <g id="Group-25" transform="translate(30.538693, 0.389785)">
                    <path d="M40.3016335,50.7561165 L42.3407898,61.9600681 L5.7499851,71.7645447 L8.0688471,59.3928656 L40.3016335,50.7561165 Z M37.6382014,36.1221402 L36.4372082,29.5233968 L13.6673738,29.5233968 L11.0976152,43.2336688 L37.6382014,36.1221402 Z M45.004222,76.5940445 L47.7448089,91.6519403 L48.9380119,96.4532599 L36.6703115,102.957789 L12.6689529,95.7852877 L0.431363591,99.1322194 L2.02242917,91.6519403 L2.72121698,87.9237415 L45.004222,76.5940445 Z" id="Combined-Shape"></path>
                    <g id="Group-15" transform="translate(13.547899, 0.000000)">
                        <polyline id="Rectangle-10" transform="translate(11.402539, 3.572725) scale(-1, 1) translate(-11.402539, -3.572725) " points="10.5244857 7.01095201 10.5244857 2.66453526e-15 12.2805933 0.0259065209 12.2805933 7.14544956"></polyline>
                        <polyline id="Rectangle-10" points="7.54669048 30.5985805 7.54669048 20.8034766 15.093381 20.8034766 15.093381 30.5985805"></polyline>
                        <polygon id="Triangle-3" points="11.4249374 2.34405683 22.8498748 12.9048936 0 12.9048936"></polygon>
                    </g>
                </g>
                <path d="M98.9202224,50.1546598 L105.374451,50.1546598 C105.374451,50.1546598 104.311205,47.6326221 102.461767,44.5651491 C100.61233,41.497676 99.7214863,40.4654775 98.2770472,38.6556989 C96.5316297,36.4688161 94.7543172,34.6504033 93.0270718,33.0618447 C91.2998263,31.4732861 89.5497578,30.0573376 87.4385333,28.5085081 C83.2578352,25.4414785 78.3831755,23.2051948 74.4780261,21.7349128 C70.5728767,20.2646308 67.0804711,19.5849515 67.0804711,19.5849515 L67.1059392,25.4414785 C67.1059392,25.4414785 70.6955123,26.179774 74.5536172,27.888061 C78.4117222,29.5963481 81.5046888,31.1731845 85.1497427,33.913302 C87.8316517,35.9293891 90.9838637,38.7062217 93.8615316,42.3898121 C95.3175017,44.2535427 96.4031245,45.7448474 97.4015387,47.3972821 C98.3999528,49.0497168 98.9202224,50.1546598 98.9202224,50.1546598 Z" id="Path-24"></path>
                <path d="M99.2387935,91.5841877 L105.593387,91.5841877 C105.593387,91.5841877 105.051245,93.0254246 104.100876,94.8550853 C103.150508,96.6847461 102.602609,97.4601295 101.692147,98.8770584 C99.4376759,102.385634 98.2275536,103.7956 96.4272955,105.775737 C91.8796213,110.777808 88.8077494,112.902598 86.4099888,114.516664 C84.3253048,115.91998 81.3477664,117.641379 79.6509342,118.422419 C77.9541019,119.20346 75.9852167,120.060412 72.3000495,121.301475 C66.3054961,123.320275 59.7560653,123.794393 59.7560653,123.794393 C59.7560653,123.794393 55.9339615,124.051742 53.7871135,123.970263 C51.6402655,123.888785 47.4371235,123.685262 42.6542874,122.610144 C33.5862163,120.571764 26.8949986,116.505165 25.0975002,115.32241 C21.4764029,112.939727 19.4354487,111.357271 17.6606259,109.680071 C14.8683521,107.041384 13.0873374,105.340407 10.8481251,102.288337 C9.38445405,100.293337 7.15693414,96.9663517 5.84641814,94.2764127 C4.53590214,91.5864737 4.31003865,90.9793182 3.83533631,89.7358251 C3.28876798,88.3040774 2.7544658,86.9252722 2.30896333,85.2601016 C1.86346087,83.5949309 1.40225236,81.5538232 1.16179212,80.1944667 C0.948204777,78.9870265 0.709321709,77.3296913 0.586692217,76.1807474 C0.464062724,75.0318034 0.395525919,72.6016317 0.395525919,72.6016317 C0.395525919,72.6016317 -0.0176182908,66.9675512 1.69903187,59.5232261 C2.66864848,55.3184432 4.23716159,51.1282789 6.28837016,47.2506788 C7.6604808,44.656844 8.61643037,43.2152251 9.8359177,41.4775642 C11.055405,39.7399034 11.6503326,38.9881328 12.6460068,37.8222848 C15.2535891,34.7690329 17.9100411,32.1827786 21.5216586,29.4365417 C25.1332761,26.6903048 29.2302177,24.4906536 32.0815987,23.21317 C37.9204648,20.5972249 44.2730347,19.3121522 44.2730347,19.3121522 L44.2730347,25.1932082 C44.2730347,25.1932082 38.4190045,26.1181581 31.3528028,29.9207537 C27.8730844,31.7933244 25.8363422,33.3533524 24.3990175,34.4454353 C22.9616928,35.5375181 19.3162993,38.6888575 16.6413904,42.047374 C13.8471027,45.5557781 12.0059894,48.5629168 10.5179943,51.7973358 C9.02999921,55.0317547 8.44776109,56.8701065 7.80771519,59.1190232 C7.1676693,61.36794 6.62913238,64.2019345 6.466197,66.1622684 C6.39529651,67.0152976 6.27690449,67.990576 6.21808932,69.3747133 C6.15927416,70.7588507 6.21808932,73.033941 6.21808932,73.033941 C6.21808932,73.033941 6.28837016,75.3493461 6.76033329,78.3635894 C6.95207865,79.5881918 7.47173751,82.7180517 9.01608363,86.9900172 C9.74343524,89.002015 11.2495772,92.3942865 13.572633,96.063174 C15.2478434,98.7088956 17.4287603,101.401679 19.9936226,104.006294 C22.5584849,106.61091 25.4066248,108.654452 26.0936706,109.157603 C27.7403249,110.363514 29.8901891,111.559546 31.5298439,112.500107 C31.9648846,112.749662 32.9030613,113.261582 35.8394846,114.516664 C38.7759079,115.771745 41.4361286,116.562953 44.5865257,117.247191 C51.3277402,118.711323 57.3514896,118.290795 57.3514896,118.290795 C57.3514896,118.290795 61.2480621,118.113992 65.5239671,117.247191 C69.7998721,116.38039 74.5883899,114.901635 80.2574943,111.626475 C82.9930561,110.046084 84.4228139,108.961913 86.8946084,107.019644 C89.3664028,105.077374 92.1761434,102.104791 94.0722167,99.7079008 C97.4837216,95.3953024 99.2387935,91.5841877 99.2387935,91.5841877 Z" id="Path-29"></path>
            </g>
            <g id="Group-32" transform="translate(13.000000, 70.000000)">
                <g id="Group-2" transform="translate(5.351558, 80.237109)">
                    <polygon id="Path-2" points="61.5362041 24.0936337 81.264499 13.683753 93.826426 16.4539345 94.1453996 14.8811925 80.8801653 11.7564286 61.5362041 22.5611451 37.9522074 14.8377533 11.061667 23.287296 11.9911927 24.847574 37.9522074 16.4539345"></polygon>
                    <polygon id="Path-3" points="33.8320337 10.0876509 65.1933355 6.15440595 79.280198 4.56508381 94.2755781 14.1458028 95.3360088 12.7636474 79.6589206 2.70633281 65.1933355 4.56508381 35.1365662 8.84958603 10.6985982 0.188218632 0.310294213 7.92032635 1.56922143 9.12465027 11.0646697 2.15193904"></polygon>
                    <polygon id="Path-18" points="2.0073472 6.57904788 1.43283257 8.2947602 16.5863497 14.1299248 37.552505 8.75363436 37.552505 7.10429007 16.5863497 12.1612375"></polygon>
                    <polygon id="Path-13" points="43.1330385 29.8305912 63.731562 20.8316151 83.2209543 29.5358984 84.5489271 28.2934096 63.731562 18.7946197 43.1330385 27.9895268 33.9421464 25.4608613 20.9868106 30.5505975 21.7152174 32.2506261 33.9421464 27.3214746"></polygon>
                </g>
                <g id="Group-25" transform="translate(30.538693, 0.389785)">
                    <path d="M40.3016335,50.7561165 L42.3407898,61.9600681 L5.7499851,71.7645447 L8.0688471,59.3928656 L40.3016335,50.7561165 Z M37.6382014,36.1221402 L36.4372082,29.5233968 L13.6673738,29.5233968 L11.0976152,43.2336688 L37.6382014,36.1221402 Z M45.004222,76.5940445 L47.7448089,91.6519403 L48.9380119,96.4532599 L36.6703115,102.957789 L12.6689529,95.7852877 L0.431363591,99.1322194 L2.02242917,91.6519403 L2.72121698,87.9237415 L45.004222,76.5940445 Z" id="Combined-Shape"></path>
                    <g id="Group-15" transform="translate(13.547899, 0.000000)">
                        <polyline id="Rectangle-10" transform="translate(11.402539, 3.572725) scale(-1, 1) translate(-11.402539, -3.572725) " points="10.5244857 7.01095201 10.5244857 2.66453526e-15 12.2805933 0.0259065209 12.2805933 7.14544956"></polyline>
                        <polyline id="Rectangle-10" points="7.54669048 30.5985805 7.54669048 20.8034766 15.093381 20.8034766 15.093381 30.5985805"></polyline>
                        <polygon id="Triangle-3" points="11.4249374 2.34405683 22.8498748 12.9048936 0 12.9048936"></polygon>
                    </g>
                </g>
                <path d="M98.9202224,50.1546598 L105.374451,50.1546598 C105.374451,50.1546598 104.311205,47.6326221 102.461767,44.5651491 C100.61233,41.497676 99.7214863,40.4654775 98.2770472,38.6556989 C96.5316297,36.4688161 94.7543172,34.6504033 93.0270718,33.0618447 C91.2998263,31.4732861 89.5497578,30.0573376 87.4385333,28.5085081 C83.2578352,25.4414785 78.3831755,23.2051948 74.4780261,21.7349128 C70.5728767,20.2646308 67.0804711,19.5849515 67.0804711,19.5849515 L67.1059392,25.4414785 C67.1059392,25.4414785 70.6955123,26.179774 74.5536172,27.888061 C78.4117222,29.5963481 81.5046888,31.1731845 85.1497427,33.913302 C87.8316517,35.9293891 90.9838637,38.7062217 93.8615316,42.3898121 C95.3175017,44.2535427 96.4031245,45.7448474 97.4015387,47.3972821 C98.3999528,49.0497168 98.9202224,50.1546598 98.9202224,50.1546598 Z" id="Path-24"></path>
                <path d="M99.2387935,91.5841877 L105.593387,91.5841877 C105.593387,91.5841877 105.051245,93.0254246 104.100876,94.8550853 C103.150508,96.6847461 102.602609,97.4601295 101.692147,98.8770584 C99.4376759,102.385634 98.2275536,103.7956 96.4272955,105.775737 C91.8796213,110.777808 88.8077494,112.902598 86.4099888,114.516664 C84.3253048,115.91998 81.3477664,117.641379 79.6509342,118.422419 C77.9541019,119.20346 75.9852167,120.060412 72.3000495,121.301475 C66.3054961,123.320275 59.7560653,123.794393 59.7560653,123.794393 C59.7560653,123.794393 55.9339615,124.051742 53.7871135,123.970263 C51.6402655,123.888785 47.4371235,123.685262 42.6542874,122.610144 C33.5862163,120.571764 26.8949986,116.505165 25.0975002,115.32241 C21.4764029,112.939727 19.4354487,111.357271 17.6606259,109.680071 C14.8683521,107.041384 13.0873374,105.340407 10.8481251,102.288337 C9.38445405,100.293337 7.15693414,96.9663517 5.84641814,94.2764127 C4.53590214,91.5864737 4.31003865,90.9793182 3.83533631,89.7358251 C3.28876798,88.3040774 2.7544658,86.9252722 2.30896333,85.2601016 C1.86346087,83.5949309 1.40225236,81.5538232 1.16179212,80.1944667 C0.948204777,78.9870265 0.709321709,77.3296913 0.586692217,76.1807474 C0.464062724,75.0318034 0.395525919,72.6016317 0.395525919,72.6016317 C0.395525919,72.6016317 -0.0176182908,66.9675512 1.69903187,59.5232261 C2.66864848,55.3184432 4.23716159,51.1282789 6.28837016,47.2506788 C7.6604808,44.656844 8.61643037,43.2152251 9.8359177,41.4775642 C11.055405,39.7399034 11.6503326,38.9881328 12.6460068,37.8222848 C15.2535891,34.7690329 17.9100411,32.1827786 21.5216586,29.4365417 C25.1332761,26.6903048 29.2302177,24.4906536 32.0815987,23.21317 C37.9204648,20.5972249 44.2730347,19.3121522 44.2730347,19.3121522 L44.2730347,25.1932082 C44.2730347,25.1932082 38.4190045,26.1181581 31.3528028,29.9207537 C27.8730844,31.7933244 25.8363422,33.3533524 24.3990175,34.4454353 C22.9616928,35.5375181 19.3162993,38.6888575 16.6413904,42.047374 C13.8471027,45.5557781 12.0059894,48.5629168 10.5179943,51.7973358 C9.02999921,55.0317547 8.44776109,56.8701065 7.80771519,59.1190232 C7.1676693,61.36794 6.62913238,64.2019345 6.466197,66.1622684 C6.39529651,67.0152976 6.27690449,67.990576 6.21808932,69.3747133 C6.15927416,70.7588507 6.21808932,73.033941 6.21808932,73.033941 C6.21808932,73.033941 6.28837016,75.3493461 6.76033329,78.3635894 C6.95207865,79.5881918 7.47173751,82.7180517 9.01608363,86.9900172 C9.74343524,89.002015 11.2495772,92.3942865 13.572633,96.063174 C15.2478434,98.7088956 17.4287603,101.401679 19.9936226,104.006294 C22.5584849,106.61091 25.4066248,108.654452 26.0936706,109.157603 C27.7403249,110.363514 29.8901891,111.559546 31.5298439,112.500107 C31.9648846,112.749662 32.9030613,113.261582 35.8394846,114.516664 C38.7759079,115.771745 41.4361286,116.562953 44.5865257,117.247191 C51.3277402,118.711323 57.3514896,118.290795 57.3514896,118.290795 C57.3514896,118.290795 61.2480621,118.113992 65.5239671,117.247191 C69.7998721,116.38039 74.5883899,114.901635 80.2574943,111.626475 C82.9930561,110.046084 84.4228139,108.961913 86.8946084,107.019644 C89.3664028,105.077374 92.1761434,102.104791 94.0722167,99.7079008 C97.4837216,95.3953024 99.2387935,91.5841877 99.2387935,91.5841877 Z" id="Path-29"></path>
            </g>
        </g>
    </g>
</svg>